<svg xmlns="http://www.w3.org/2000/svg" version="1.1" xmlns:xlink="http://www.w3.org/1999/xlink" xmlns:svgjs="http://svgjs.dev/svgjs" width="2000" height="2433" viewBox="0 0 2000 2433"><g transform="matrix(1,0,0,1,-0.5712629879539008,0.9850202429149704)"><svg viewBox="0 0 203 247" data-background-color="#000000" preserveAspectRatio="xMidYMid meet" height="2433" width="2000" xmlns="http://www.w3.org/2000/svg" xmlns:xlink="http://www.w3.org/1999/xlink"><g id="tight-bounds" transform="matrix(1,0,0,1,0.05798319327732315,-0.09999999999999432)"><svg viewBox="0 0 202.88403361344535 247.2" height="247.2" width="202.88403361344535"><g><svg viewBox="0 0 202.88403361344535 247.2" height="247.2" width="202.88403361344535"><g><svg viewBox="0 0 202.88403361344535 247.2" height="247.2" width="202.88403361344535"><g id="textblocktransform"><svg viewBox="0 0 202.88403361344535 247.2" height="247.2" width="202.88403361344535" id="textblock"><g><svg viewBox="0 0 202.88403361344535 247.2" height="247.2" width="202.88403361344535"><g transform="matrix(1,0,0,1,0,0)"><svg width="202.88403361344535" viewBox="-2.1 -35.2 29.3 35.7" height="247.2" data-palette-color="url(#cdcdd20b-0670-4e80-a38b-abca37a121fe)"></svg></g></svg></g></svg></g></svg></g><g></g></svg></g><defs></defs><mask id="fb13a8ed-e455-449a-87be-610d34ea944f"><g id="SvgjsG1099"><svg viewBox="0 0 202.88403361344535 247.2" height="247.2" width="202.88403361344535"><g><svg viewBox="0 0 202.88403361344535 247.2" height="247.2" width="202.88403361344535"><g><svg viewBox="0 0 202.88403361344535 247.2" height="247.2" width="202.88403361344535"><g id="SvgjsG1098"><svg viewBox="0 0 202.88403361344535 247.2" height="247.2" width="202.88403361344535" id="SvgjsSvg1097"><g><svg viewBox="0 0 202.88403361344535 247.2" height="247.2" width="202.88403361344535"><g transform="matrix(1,0,0,1,0,0)"><svg width="202.88403361344535" viewBox="-2.1 -35.2 29.3 35.7" height="247.2" data-palette-color="url(#cdcdd20b-0670-4e80-a38b-abca37a121fe)"><path d="M21.2 0.5Q18.85 0.5 18.3-2.9L18.3-2.9Q17.85-5.65 17.85-12.75L17.85-12.75 16.6-11.8 10.5-11.8Q9.35-8.85 7.83-6.5 6.3-4.15 4.6-3L4.6-3 4.6-2.9Q5.25-2.6 5.85-2.6L5.85-2.6Q6.6-2.6 7.28-2.85 7.95-3.1 8.1-3.1L8.1-3.1Q8.45-3.1 8.45-2.85L8.45-2.85Q8.45-2.5 7.75-1.65L7.75-1.65Q6.95-0.85 6.05-0.43 5.15 0 4.35 0L4.35 0Q3.7 0 2.5-0.4L2.5-0.4Q1.3-0.8 0.7-0.8L0.7-0.8Q-0.05-0.8-0.83-0.4-1.6 0-1.85 0L-1.85 0Q-2.1 0-2.1-0.25L-2.1-0.25Q-2.1-0.75-1.7-1.43-1.3-2.1-0.75-2.35L-0.75-2.35Q-0.45-2.5-0.18-2.55 0.1-2.6 0.5-2.75L0.5-2.75Q2.45-3.5 3.93-5.48 5.4-7.45 6.45-9.93 7.5-12.4 8.85-16.25L8.85-16.25Q10.4-20.6 11.53-23.33 12.65-26.05 14.2-28.38 15.75-30.7 17.75-32L17.75-32 17.75-32.05Q17.05-32.15 16.7-32.25L16.7-32.25Q16.5-32.3 15.48-32.45 14.45-32.6 12.85-32.6L12.85-32.6Q10.15-32.6 8.33-31.6 6.5-30.6 4.9-28.35L4.9-28.35Q4.4-27.55 4.1-27.55L4.1-27.55Q3.8-27.55 3.8-27.95L3.8-27.95 3.85-28.45Q4.6-31.5 7.28-33.35 9.95-35.2 13.5-35.2L13.5-35.2Q14.95-35.2 17.85-34.7L17.85-34.7Q20.55-34.2 21.7-34.2L21.7-34.2Q23-34.2 24.45-34.7L24.45-34.7 24.45-34.65Q23.1-32.4 22.35-27.63 21.6-22.85 21.6-15.8L21.6-15.8Q21.6-8.55 21.9-6L21.9-6Q22-4.55 22.33-3.83 22.65-3.1 23.45-3.1L23.45-3.1Q23.95-3.1 24.43-3.35 24.9-3.6 25.7-4.1L25.7-4.1Q26.65-4.75 26.9-4.75L26.9-4.75Q27.2-4.75 27.2-4.55L27.2-4.55Q27.2-4.15 26.9-3.6L26.9-3.6Q25.95-1.9 24.33-0.7 22.7 0.5 21.2 0.5L21.2 0.5ZM11.4-14.8L17.9-14.8Q18-19.4 18.55-23.93 19.1-28.45 19.95-31.3L19.95-31.3 19.9-31.3Q17.95-30.4 16.13-26.95 14.3-23.5 11.95-16.5L11.95-16.5 11.4-14.8Z" opacity="1" transform="matrix(1,0,0,1,0,0)" fill="white" class="wordmark-text-0" id="SvgjsPath1096"></path></svg></g></svg></g></svg></g></svg></g><g></g></svg></g><defs><mask></mask></defs></svg><rect width="202.88403361344535" height="247.2" fill="black" stroke="none" visibility="hidden"></rect></g></mask><linearGradient x1="0" x2="1" y1="0.5" y2="0.5" id="cdcdd20b-0670-4e80-a38b-abca37a121fe"><stop stop-color="#ffa62e" offset="0"></stop><stop stop-color="#f71b3d" offset="1"></stop></linearGradient><rect width="202.88403361344535" height="247.2" fill="url(#cdcdd20b-0670-4e80-a38b-abca37a121fe)" mask="url(#fb13a8ed-e455-449a-87be-610d34ea944f)" data-fill-palette-color="primary"></rect></svg><rect width="202.88403361344535" height="247.2" fill="none" stroke="none" visibility="hidden"></rect></g></svg></g></svg>